<svg width="256" height="267" viewBox="0 0 256 267" fill="none" xmlns="http://www.w3.org/2000/svg">
  <path d="M183.526 266.923c40.027 0 72.474-2.994 72.474-6.688 0-3.693-32.447-6.687-72.474-6.687-40.026 0-72.473 2.994-72.473 6.687 0 3.694 32.447 6.688 72.473 6.688Z" fill="#fff"/>
  <path opacity=".1" d="M183.526 266.923c40.027 0 72.474-2.994 72.474-6.688 0-3.693-32.447-6.687-72.474-6.687-40.026 0-72.473 2.994-72.473 6.687 0 3.694 32.447 6.688 72.473 6.688Z" fill="#292A2E"/>
  <path d="M63.217 160.788H40.115v6.722h23.102v-6.722Z" fill="#F4F4F4"/>
  <path opacity=".05" d="M46.245 160.788h-3.027v6.722h3.027v-6.722Z" fill="#292A2E"/>
  <path d="M60.265 162.249H47.679v3.983h12.586v-3.983Z" fill="#fff"/>
  <path d="m81.643 161.665-21.465-9.375-2.69 6.16 21.464 9.375 2.69-6.16Z" fill="#F4F4F4"/>
  <path opacity=".05" d="m81.643 161.665-21.465-9.375-2.69 6.16 21.464 9.375 2.69-6.16Z" fill="#292A2E"/>
  <path d="m78.76 160.406-2.812-1.228-2.69 6.16 2.812 1.228 2.69-6.16Zm-4.73-.471-11.695-5.108-1.594 3.65 11.695 5.108 1.594-3.65Z" fill="#fff"/>
  <path opacity=".05" d="M81.683 245.938h-5.805v3.878h5.805v-3.878Zm-59.353 0h-5.806v3.877h5.805v-3.877Z" fill="#292A2E"/>
  <path d="M87.005 167.825H11.203v77.982h75.802v-77.982Z" fill="#F4F4F4"/>
  <path opacity=".03" d="M87.005 167.825H11.203v77.982h75.802v-77.982Z" fill="#292A2E"/>
  <path d="M101.052 167.825H25.249v77.982h75.803v-77.982Z" fill="#F4F4F4"/>
  <path opacity=".05" d="M95.73 245.938h-5.805v3.878h5.806v-3.878Zm-59.353 0h-5.805v3.877h5.805v-3.877Z" fill="#292A2E"/>
  <path opacity=".7" d="M98.207 171.478H28.096v14.981h70.111v-14.981Zm0 18.648H28.096v14.982h70.111v-14.982Zm0 18.649H28.096v14.982h70.111v-14.982Z" fill="#fff"/>
  <path opacity=".05" d="M63.151 181.065a2.096 2.096 0 1 0 .001-4.192 2.096 2.096 0 0 0 0 4.192Zm0 18.649a2.096 2.096 0 1 0 0-4.193 2.096 2.096 0 0 0 0 4.193Zm0 18.649a2.097 2.097 0 1 0 0-4.193 2.097 2.097 0 0 0 0 4.193Z" fill="#292A2E"/>
  <path opacity=".7" d="M98.207 227.844H28.096v14.982h70.111v-14.982Z" fill="#fff"/>
  <path opacity=".05" d="M63.151 237.432a2.097 2.097 0 1 0 0-4.193 2.097 2.097 0 0 0 0 4.193Z" fill="#292A2E"/>
  <path d="M38.111 90.425h44.823V32.083H38.11v58.342Z" fill="#F4F4F4"/>
  <path d="M38.111 32.084h-1.454v58.341h1.454V32.084Z" fill="#F4F4F4"/>
  <path opacity=".05" d="M38.111 32.084h-1.454v58.341h1.454V32.084Zm8.165 47.713H74.77V42.711H46.276v37.086Z" fill="#292A2E"/>
  <path opacity=".03" d="M46.276 79.797h1.485V42.711h-1.485v37.086Z" fill="#292A2E"/>
  <path d="M1.454 141.766H38.11v-36.994H1.454v36.994Z" fill="#F4F4F4"/>
  <path opacity=".05" d="M8.131 135.027h23.302v-23.516H8.131v23.516Z" fill="#292A2E"/>
  <path d="M1.454 104.772H0v36.995h1.454v-36.995Z" fill="#F4F4F4"/>
  <path opacity=".05" d="M1.454 104.772H0v36.995h1.454v-36.995Z" fill="#292A2E"/>
  <path opacity=".03" d="M8.131 135.027h1.485v-23.516H8.131v23.516Z" fill="#292A2E"/>
  <path d="M224.985 31.944h-93.537v93.537h93.537V31.944Zm-93.537 0h-1.072v93.537h1.072V31.944Z" fill="#F4F4F4"/>
  <path opacity=".05" d="M131.448 31.944h-1.072v93.537h1.072V31.944Zm22.66 64.455V71.926h20.046v14.218h31.052v25.175h13.198v14.162h-82.457V96.399h18.161Z" fill="#292A2E"/>
  <path opacity=".34" d="M171.581 74.584h-14.598v2.657h14.598v-2.657Zm0 5.506h-14.598v2.657h14.598V80.09Zm0 5.506h-14.598v2.657h14.598v-2.657Zm-30.354 13.382h-2.691v2.657h2.691v-2.657Zm0 5.507h-2.691v2.657h2.691v-2.657Zm0 5.506h-2.691v2.657h2.691v-2.657Zm4.977-11.013h-2.69v2.658h2.69v-2.657Zm0 5.507h-2.69v2.657h2.69v-2.657Zm0 5.506h-2.69v2.657h2.69v-2.657Zm4.844-11.013h-2.691v2.658h2.691v-2.657Zm0 5.507h-2.691v2.657h2.691v-2.657Zm0 5.506h-2.691v2.657h2.691v-2.657Z" fill="#FFFFFA"/>
  <path d="M131.448 78.188h18.821V31.944h1.557v46.244h50.838V31.944h1.557v46.244h20.764v1.556h-20.764v45.737h-1.557V79.744h-50.838v45.737h-1.557V79.744h-18.821v-1.556Z" fill="#fff"/>
  <path d="M228.711 125.368H127.722v3.111h100.989v-3.111Z" fill="#F4F4F4"/>
  <path opacity=".1" d="M228.711 125.368H127.722v3.111h100.989v-3.111Zm-100.989 0h-1.458v3.111h1.458v-3.111Z" fill="#292A2E"/>
  <path opacity=".1" d="M127.722 125.368h-1.458v3.111h1.458v-3.111Z" fill="#292A2E"/>
  <path d="M208.946 141.393c-14.32 0-25.929 3.907-25.929 8.726v10.388h51.858v-10.388c0-4.819-11.609-8.726-25.929-8.726Z" fill="#D74D5C"/>
  <path opacity=".49" d="M208.946 141.393c-14.32 0-25.929 3.907-25.929 8.726v10.388h51.858v-10.388c0-4.819-11.609-8.726-25.929-8.726Z" fill="#fff"/>
  <path opacity=".49" d="M227.811 150.12v10.386h-44.795V150.12c0-4.417 9.75-8.067 22.397-8.644 12.65.577 22.398 4.227 22.398 8.644Z" fill="#fff"/>
  <path d="M234.874 261.445h.871l-.871-101.86-.863.871.616 71.151-30.719.522-.62-71.681-.863.008.62 71.688-18.543.315-.623-72.011-.863-.855.87 101.852.856-.007-.233-28.116 18.544-.315.235 28.438.863-.007-.236-28.446 30.719-.522.24 28.975Z" fill="#292A2E"/>
  <path d="M156.664 246.195s-1.542 7.993-9.026 8.439c-7.484.445-5.861 6.407-5.861 6.407h28.6v-14.289l-13.713-.557Zm16.317-24.042s2.145 7.853-4.374 11.557c-6.518 3.703-2.43 8.336-2.43 8.336l25.662-12.625-6.307-12.821-12.551 5.553Z" fill="#D74D5C"/>
  <path d="m170.267 227.343-19.337-72.959c-1.467-8.06.741-11.554 4.144-14.948 5.978-5.963 30.748-18.653 30.748-18.653l29.718-.082c7.88 0 15.625 7.77 15.625 15.65 0 7.879-8.01 14.562-15.89 14.562l-36.594 3.652 9.92 66.804-18.334 5.974Z" fill="#262626"/>
  <path d="m188.601 221.369-3.906-26.3-19.784 12.069 5.355 20.205 18.335-5.974Zm4.483-85.822s-12.492 2.784-24.864 15.156c-7.501 7.501-6.886 21.076-5.761 47.185l12.288-18.15 13.478-24.308 4.859-19.883Z" fill="#0C0C0C"/>
  <path d="m236.338 120.693-20.181-.095-.008.266h-6.111s-15.308 14.085-27.631 22.961c-8.965 6.456-14.433 12.611-14.906 19.32-1.154 16.352-14.164 86.095-14.164 86.095l19.58 2.965 17.183-83.348s26.867-12.387 33.081-16.697c5.852-4.058 9.986-5.627 11.923-10.057 3.344-7.65 1.234-21.41 1.234-21.41Z" fill="#262626"/>
  <path d="m213.697 125.777-32.74.433 18.365 10.969 15.282-7.891a1.862 1.862 0 0 0 .25-3.128 1.86 1.86 0 0 0-1.157-.383Z" fill="#292A2E"/>
  <path opacity=".2" d="m213.697 125.777-32.74.433 18.365 10.969 15.282-7.891a1.862 1.862 0 0 0 .25-3.128 1.86 1.86 0 0 0-1.157-.383Z" fill="#fff"/>
  <path d="m180.21 69.158-8.326 27.888-18.548 24.285 10.835 12.438 22.067-24.629a7.633 7.633 0 0 0 2.311-3.049l.343-.832" stroke="#000" stroke-width=".717"/>
  <path d="M195.41 35.192s-3.731-2.819-4.656-9.301c-.716-5.02 3.915-1.768 3.915-1.768s-.481-3.619 2.157-3.26c2.637.36 4.112 4.161 4.112 4.161m9.517-3.737s13.083 1.402 8.354 19.132l-1.158.078-2.35.157" fill="#0C0C0C"/>
  <path d="M197.602 58.935c.057-.008.696 10.583 12.999 9.661 8.519-.638 11.556-9.676 11.751-9.676-.918-.195-2.054-.492-2.504-.593a4.967 4.967 0 0 1-3.802-4.18c-.25-1.5.172-9.182.043-10.7l-13.075 2.918c.183 3.208 1.462 10.646-3.019 11.962a40 40 0 0 1-2.393.608Z" fill="#E98862"/>
  <path opacity=".52" d="M202.831 55.288c.205-.66.337-1.341.393-2.03a21.596 21.596 0 0 0-.086-4.72 14.337 14.337 0 0 0 7.228-3.165c.243.897 1.578 4.815 1.208 5.665-.699 1.61-3.983 4.25-8.743 4.25Z" fill="#0C0C0C"/>
  <path d="M205.53 53.191c5.159-.463 11.333-3.722 11.422-10.724l.08-6.319c.09-7.002-3.516-12.726-10.109-12.81-6.593-.083-11.594 5.53-11.683 12.533l-.035 2.797c.004.96.074 1.92.209 2.871.338 2.517.863 6.343 2.57 8.93 1.613 2.444 4.25 3.017 7.546 2.722Z" fill="#E98862"/>
  <path opacity=".52" d="M203.137 46.79a6.802 6.802 0 0 1-3.098-.591.167.167 0 0 1-.085-.217.165.165 0 0 1 .09-.089.164.164 0 0 1 .125 0c2.094.893 3.996.762 5.499-.378a.89.89 0 0 1 .094-.067.167.167 0 0 1 .215.067.167.167 0 0 1-.049.22 4.988 4.988 0 0 1-2.791 1.055Zm.048 1.578a3.392 3.392 0 0 1-.577-.014.17.17 0 0 1-.112-.06.176.176 0 0 1-.03-.058c-.006-.021-.008-.043-.006-.065a.17.17 0 0 1 .119-.142.164.164 0 0 1 .064-.006c1.152.122 1.703-.405 1.726-.428a.165.165 0 0 1 .235 0 .167.167 0 0 1 .049.117.164.164 0 0 1-.049.118 2.253 2.253 0 0 1-1.419.538Z" fill="#0C0C0C"/>
  <path d="M197.418 40.015a.812.812 0 1 0 0-1.625.812.812 0 0 0 0 1.625Zm7.934-.498a.812.812 0 1 0 0-1.625.812.812 0 0 0 0 1.625Z" fill="#0C0C0C"/>
  <path d="M216.516 44.596c2.003.026 3.655-2.097 3.681-4.101.026-2.004-1.585-3.13-3.589-3.155l-1.049 1.33-.766 5.904 1.723.022Z" fill="#E98862"/>
  <path d="M214.522 41.375s-.677-9.909-3.682-10.52c-2.001-.408-6.853 2.43-11.348 1.573-1.966-.374-3.833.112-4.023 1.04-.075.368-1.3-4.917 1.779-8.927 2.452-3.193 10.475-4.096 14.125-3.049 10.107 2.9 5.647 16.283 5.647 16.283l-.45 3.416-2.048.184Z" fill="#0C0C0C"/>
  <path d="M201.925 44.452h-.013c-.645-.006-1.728-.09-1.724-.572.005-.4 1.144-4.71 1.274-5.2a.165.165 0 0 1 .301-.04.165.165 0 0 1 .017.125c-.506 1.908-1.26 4.846-1.263 5.119.063.115.73.233 1.398.24a.166.166 0 0 1 .113.048.167.167 0 0 1 .006.227.164.164 0 0 1-.109.054Z" fill="#0C0C0C" opacity=".52"/>
  <path d="M199.722 34.799a3.908 3.908 0 0 0-2.074 0c-.333.09-.651.229-.943.413-.288.18-.553.396-.788.643a.24.24 0 0 0 .326.35l.015-.012c.217-.2.458-.374.719-.514.255-.14.53-.24.816-.298a3.261 3.261 0 0 1 1.69.094l.022.008a.362.362 0 0 0 .45-.222.358.358 0 0 0-.21-.456l-.023-.006Zm4.805.407a3.28 3.28 0 0 1 1.663-.319c.291.02.577.082.848.187a3.5 3.5 0 0 1 .78.414l.016.01a.24.24 0 0 0 .276-.39 4.029 4.029 0 0 0-.866-.533 3.455 3.455 0 0 0-.99-.283 3.907 3.907 0 0 0-2.055.275.357.357 0 0 0-.217.337.362.362 0 0 0 .504.324l.021-.01.02-.012Zm-.329-10.62c.457-2.183-.376-4.204-1.859-4.514-1.483-.31-3.055 1.209-3.511 3.392-.456 2.183.376 4.204 1.859 4.513 1.483.31 3.055-1.208 3.511-3.391Z" fill="#0C0C0C"/>
  <path d="M185.822 120.783c-.374-5.608-3.121-34.016-3.509-38.57-.438-5.164-1.768-8.978-1.719-12.375.042-2.95 1.11-6.161 4.725-8.517 2.56-1.668 12.795-3.036 14.675-3.036.058 0-.717 8.183 10.89 7.637 8.526-.403 8.884-7.637 8.884-7.637s4.223.273 7.031.653c4.599.622 11.389 2.933 13.523 8.106 1.209 2.934 1.869 7.13 4.018 17.52" stroke="#000" stroke-width=".717"/>
  <path d="M184.874 109.588a.148.148 0 0 1-.098-.037.146.146 0 0 1-.046-.094l-1.913-21.88a.143.143 0 0 1 .131-.156.145.145 0 0 1 .105.033.127.127 0 0 1 .035.044.13.13 0 0 1 .015.054l1.913 21.88a.145.145 0 0 1-.13.156h-.012Z" fill="#0C0C0C"/>
  <path d="m188.535 122.298 6.933-5.625-1.166.33a1.548 1.548 0 0 1-1.855-1.003 1.494 1.494 0 0 1 .137-1.168 1.492 1.492 0 0 1 .942-.704l14.566-3.542 1.253 4.639a7.5 7.5 0 0 1-2.709 7.928l-5.397 4.073a1.526 1.526 0 0 1-1.927-.037 1.49 1.49 0 0 1-.37-1.726.14.14 0 0 1-.061-.038.146.146 0 0 1-.029-.06.152.152 0 0 1 .003-.067l-.994.753a1.549 1.549 0 0 1-2.102-.175 1.492 1.492 0 0 1-.005-1.913.142.142 0 0 1-.045-.016l-.408.31a1.527 1.527 0 0 1-1.927-.037 1.49 1.49 0 0 1-.165-2.059.087.087 0 0 1-.014-.027l-2.888 2.343a1.39 1.39 0 0 1-1.029.306 1.398 1.398 0 0 1-1.2-.996 1.4 1.4 0 0 1 .461-1.49l-.004.001Z" fill="#E98862"/>
  <path opacity=".2" d="M193.368 122.218a.127.127 0 0 0 .042-.024l2.778-2.308a.126.126 0 0 0 .034-.042.137.137 0 0 0-.016-.154.135.135 0 0 0-.095-.05.14.14 0 0 0-.054.005.142.142 0 0 0-.048.027l-2.778 2.307a.14.14 0 0 0 .041.239.144.144 0 0 0 .096 0Zm2.448 1.743a.127.127 0 0 0 .041-.023l2.197-1.797a.138.138 0 0 0 .02-.197.137.137 0 0 0-.094-.05.138.138 0 0 0-.103.031l-2.197 1.796a.14.14 0 0 0 .136.24Zm3.216 1.507a.15.15 0 0 0 .044-.026l1.018-.872a.158.158 0 0 0 .034-.043.139.139 0 0 0 .014-.053.125.125 0 0 0-.006-.054.147.147 0 0 0-.07-.081.156.156 0 0 0-.052-.015.141.141 0 0 0-.102.034l-1.018.872a.139.139 0 0 0-.046.083.136.136 0 0 0 .017.094.144.144 0 0 0 .072.061.14.14 0 0 0 .095 0Z" fill="#0A0A0A"/>
  <path d="m240.544 67.52 9.216 40.764.053.236a9.101 9.101 0 0 1-3.629 9.449 9.079 9.079 0 0 1-3.549 1.508l-38.401 7.325-3.546-16.26 28.816-7.081" stroke="#000" stroke-width=".717"/>
  <path d="M200.547 110.572a.142.142 0 0 1 .019-.106.14.14 0 0 1 .087-.063l28.688-7.046-4.664-20.602a.14.14 0 0 1 .106-.18.145.145 0 0 1 .112.021.151.151 0 0 1 .062.095l4.695 20.74a.144.144 0 0 1-.105.173l-28.69 7.046s.192.838.246 1.121a.14.14 0 0 1-.123.155.14.14 0 0 1-.155-.122c-.066-.311-.278-1.232-.278-1.232Z" fill="#0C0C0C"/>
  <path d="m201.671 133.278-11.08-34.058a2.978 2.978 0 0 0-2.834-2.059h-45.139a2.98 2.98 0 0 0-2.835 3.903l11.08 34.058a2.979 2.979 0 0 0 2.835 2.059h45.138a2.98 2.98 0 0 0 2.835-3.903Z" fill="#292A2E"/>
  <path opacity=".2" d="m201.671 133.278-11.08-34.058a2.978 2.978 0 0 0-2.834-2.059h-45.139a2.98 2.98 0 0 0-2.835 3.903l11.08 34.058a2.979 2.979 0 0 0 2.835 2.059h45.138a2.98 2.98 0 0 0 2.835-3.903Z" fill="#fff"/>
  <path d="M169.427 121.905a4.734 4.734 0 1 0 0-9.468 4.734 4.734 0 0 0 0 9.468Z" fill="#fff"/>
  <path d="M124.529 4H35.471C31.345 4 28 7.86 28 12.62v124.76c0 4.761 3.345 8.621 7.47 8.621h89.059c4.126 0 7.471-3.86 7.471-8.621V12.621C132 7.86 128.655 4 124.529 4Z" fill="#292A2E"/>
  <path d="M128.172.33H38.583c-4.15 0-7.515 3.867-7.515 8.637v124.981c0 4.769 3.364 8.636 7.515 8.636h89.589c4.151 0 7.515-3.867 7.515-8.636V8.967c0-4.77-3.364-8.636-7.515-8.636Z" fill="#fff"/>
  <path d="M128.172 142.914H38.583c-2.069-.003-4.052-.948-5.515-2.629s-2.285-3.961-2.288-6.338V8.967c.003-2.378.825-4.657 2.288-6.338C34.531.95 36.514.003 38.583 0h89.589c2.069.003 4.052.948 5.515 2.63 1.463 1.68 2.285 3.96 2.288 6.336v124.981c-.002 2.377-.825 4.657-2.288 6.338-1.463 1.681-3.446 2.626-5.515 2.629ZM38.583.661c-1.916.002-3.753.878-5.108 2.435-1.355 1.557-2.117 3.668-2.12 5.87v124.981c.003 2.202.765 4.313 2.12 5.87 1.355 1.557 3.192 2.433 5.108 2.436h89.589c1.917-.003 3.754-.879 5.109-2.436 1.354-1.557 2.117-3.668 2.119-5.87V8.967c-.002-2.202-.765-4.314-2.119-5.87-1.355-1.558-3.192-2.434-5.109-2.436H38.583Z" fill="#292A2E"/>
  <path d="M29.86 158.64c10.306 0 18.66-8.354 18.66-18.659 0-10.304-8.354-18.658-18.66-18.658-10.304 0-18.657 8.354-18.657 18.658 0 10.305 8.353 18.659 18.658 18.659Z" fill="#292A2E"/>
  <path d="M25.987 137.546a.929.929 0 0 1-.926-.926v-4.484c0-2.479 2.153-4.497 4.8-4.497 2.646 0 4.8 2.018 4.8 4.497v4.176a.932.932 0 0 1-.266.666.937.937 0 0 1-1.019.205.932.932 0 0 1-.568-.871v-4.176c0-1.458-1.323-2.644-2.947-2.644-1.625 0-2.948 1.186-2.948 2.644v4.484a.927.927 0 0 1-.926.926Z" fill="#fff"/>
  <path d="M35.77 135.845H23.952c-.69 0-1.248.558-1.248 1.248v11.131c0 .689.559 1.248 1.248 1.248H35.77c.689 0 1.248-.559 1.248-1.248v-11.131c0-.69-.559-1.248-1.248-1.248Z" fill="#fff"/>
  <path d="M28.684 141.556a1.18 1.18 0 0 0 .662 1.059v1.808a.513.513 0 1 0 1.027 0v-1.808a1.178 1.178 0 0 0 .53-1.6 1.168 1.168 0 0 0-1.012-.634 1.17 1.17 0 0 0-1.045.578 1.175 1.175 0 0 0-.163.597h.001Z" fill="#292A2E"/>
  <path d="M120.348 81.055H46.406a3.196 3.196 0 0 0-3.196 3.196v10.366a3.196 3.196 0 0 0 3.196 3.196h73.942a3.196 3.196 0 0 0 3.197-3.196V84.25a3.196 3.196 0 0 0-3.197-3.196Z" fill="#fff"/>
  <path d="M120.348 98.1H46.406a3.487 3.487 0 0 1-3.484-3.483V84.25a3.488 3.488 0 0 1 3.484-3.484h73.942a3.49 3.49 0 0 1 3.484 3.484v10.365a3.487 3.487 0 0 1-3.484 3.484ZM46.406 81.342a2.912 2.912 0 0 0-2.908 2.909v10.365a2.912 2.912 0 0 0 2.908 2.909h73.942a2.913 2.913 0 0 0 2.909-2.909V84.252a2.914 2.914 0 0 0-2.909-2.909H46.406Z" fill="#292A2E"/>
  <path d="M120.348 105.004H46.406a3.196 3.196 0 0 0-3.196 3.196v10.366a3.196 3.196 0 0 0 3.196 3.197h73.942a3.197 3.197 0 0 0 3.197-3.197V108.2a3.196 3.196 0 0 0-3.197-3.196Z" fill="#fff"/>
  <path d="M120.348 122.05H46.406a3.489 3.489 0 0 1-3.484-3.485V108.2a3.488 3.488 0 0 1 3.484-3.483h73.942a3.49 3.49 0 0 1 3.484 3.483v10.365a3.488 3.488 0 0 1-3.484 3.485Zm-73.942-16.758a2.91 2.91 0 0 0-2.908 2.908v10.365a2.914 2.914 0 0 0 2.908 2.909h73.942a2.914 2.914 0 0 0 2.909-2.909V108.2a2.913 2.913 0 0 0-2.909-2.908H46.406Z" fill="#292A2E"/>
  <path d="M83.377 68.59c9.482 0 17.168-7.687 17.168-17.168 0-9.481-7.686-17.168-17.168-17.168-9.481 0-17.167 7.687-17.167 17.168 0 9.482 7.686 17.168 17.167 17.168Z" fill="#fff"/>
  <path d="M83.377 68.877a17.455 17.455 0 1 1 17.455-17.455 17.474 17.474 0 0 1-17.455 17.455Zm0-34.335a16.88 16.88 0 1 0 16.88 16.88 16.899 16.899 0 0 0-16.88-16.88Z" fill="#292A2E"/>
  <path opacity=".5" d="M100.164 51.422a16.725 16.725 0 0 1-3.978 10.848 16.872 16.872 0 0 0-25.618.005 16.788 16.788 0 1 1 29.596-10.853Z" fill="#D74D5C"/>
  <path d="M96.186 62.27a16.788 16.788 0 0 1-25.618.005 16.87 16.87 0 0 1 25.618-.005Zm-12.809-9.02a6.785 6.785 0 1 0 0-13.57 6.785 6.785 0 0 0 0 13.57Z" fill="#fff"/>
  <path d="M49.434 115.424a2.041 2.041 0 1 0 0-4.082 2.041 2.041 0 0 0 0 4.082Zm6.384 0a2.041 2.041 0 1 0 0-4.082 2.041 2.041 0 0 0 0 4.082Zm6.384 0a2.041 2.041 0 1 0 0-4.082 2.041 2.041 0 0 0 0 4.082Zm6.384 0a2.041 2.041 0 1 0 0-4.082 2.041 2.041 0 0 0 0 4.082Zm6.383 0a2.041 2.041 0 1 0-.001-4.082 2.041 2.041 0 0 0 0 4.082Zm6.383 0a2.041 2.041 0 1 0 0-4.082 2.041 2.041 0 0 0 0 4.082Zm6.384 0a2.041 2.041 0 1 0 0-4.082 2.041 2.041 0 0 0 0 4.082Z" opacity=".4" fill="#292A2E"/>
  <path d="M51.458 89.311v.69h-2.62v-.69h2.62Zm3.257 0v.69h-2.62v-.69h2.62Zm3.257 0v.69h-2.62v-.69h2.62Zm3.257 0v.69h-2.621v-.69h2.62Zm3.257 0v.69h-2.621v-.69h2.62Zm5.878 3.895c-.583.3-1.233.445-1.888.425-1.74 0-3.215-1.273-3.215-3.31 0-2.186 1.517-4.075 3.873-4.075 1.846 0 3.088 1.294 3.088 3.066 0 1.592-.892 2.526-1.89 2.526-.423 0-.816-.288-.784-.934h-.043a1.668 1.668 0 0 1-1.495.934c-.616 0-1.147-.5-1.147-1.337a2.507 2.507 0 0 1 2.516-2.515c.39-.006.776.07 1.135.223l-.361 1.92c-.159.805-.032 1.18.318 1.189.542.01 1.146-.711 1.146-1.942 0-1.539-.923-2.642-2.568-2.642-1.73 0-3.183 1.369-3.183 3.523 0 1.772 1.157 2.865 2.727 2.865a3.312 3.312 0 0 0 1.603-.372l.168.456Zm-.584-4.584a1.832 1.832 0 0 0-.53-.075c-.934 0-1.688.881-1.688 1.91 0 .467.234.806.7.806.616 0 1.178-.785 1.295-1.444l.223-1.197Zm5.782.689v.69H72.94v-.69h2.62Zm3.256 0v.69h-2.62v-.69h2.62Zm3.257 0v.69h-2.62v-.69h2.62Z" opacity=".3" fill="#000"/>
</svg>
