<svg width="210" height="75" viewBox="0 0 42 15" fill="none" xmlns="http://www.w3.org/2000/svg">
<path d="M41.0002 1L36.3154 2.69534L37.7569 3.6372M41.0002 1L37.7569 3.6372M41.0002 1L39.9191 5.33254L38.4776 4.36975M41.0002 1L38.4776 4.36975M37.7569 3.6372V5.33254L38.4776 4.36975" stroke="#EB5757" stroke-width="0.376742" stroke-linecap="round" stroke-linejoin="round"/>
<path d="M33.9731 13.4326V5.521H35.5948V13.4326H33.9731Z" fill="#EB5757" stroke="#EB5757" stroke-width="0.376742" stroke-linecap="round" stroke-linejoin="round"/>
<path d="M6.22527 6.83915C6.22527 6.83915 6.22527 10.6278 6.22527 13.0554M6.22527 6.83915L11.0902 9.28798L9.8289 13.9973M6.22527 6.83915L3.23148 8.34612M6.22527 13.0554C5.32436 13.2438 5.53016 14.4261 4.78381 14.374C4.08876 14.3256 4.21759 13.1038 3.52254 13.0554C2.7762 13.0034 2.82142 14.4858 2.08109 14.374C1.439 14.2772 1 13.0554 1 13.0554M6.22527 13.0554C6.94599 13.2438 6.78995 14.374 7.48654 14.374C8.18312 14.374 8.05277 13.1039 8.74781 13.0554C9.49415 13.0034 9.44293 14.4261 10.1893 14.374C10.8843 14.3256 11.4505 13.0554 11.4505 13.0554M2.44145 13.9973L1.36036 9.28798L3.23148 8.34612M3.23148 8.34612V5.70892C3.23148 5.70892 4.91105 4.97877 6.04509 4.95544C7.27372 4.93016 9.10817 5.70892 9.10817 5.70892V8.15775" stroke="#EB5757" stroke-width="0.376742" stroke-linecap="round" stroke-linejoin="round"/>
<path d="M15.0538 5.89795H13.0718V13.6212H15.0538V10.4189H15.5943L17.5763 13.6212H19.7385L17.0358 9.66537L19.7385 5.89795H17.5763L15.0538 9.477V5.89795Z" fill="#EB5757" stroke="#EB5757" stroke-width="0.376742" stroke-linecap="round" stroke-linejoin="round"/>
<path d="M26.3277 11.1139H22.5382C22.5627 11.5186 22.716 11.8283 22.9981 12.0429C23.2832 12.2575 23.7017 12.3648 24.2536 12.3648C24.6031 12.3648 24.9419 12.302 25.2699 12.1763C25.598 12.0506 25.8571 11.9157 26.0471 11.7716H26.2311V13.1006C25.8571 13.2509 25.5045 13.3597 25.1734 13.4272C24.8422 13.4946 24.4759 13.5283 24.0742 13.5283C23.0379 13.5283 22.2438 13.2953 21.692 12.8293C21.1401 12.3633 20.8642 11.6995 20.8642 10.838C20.8642 9.98566 21.1248 9.31115 21.646 8.81447C22.1703 8.31472 22.8877 8.06485 23.7983 8.06485C24.6383 8.06485 25.2699 8.27793 25.693 8.70409C26.1161 9.12719 26.3277 9.73732 26.3277 10.5345V11.1139ZM24.6813 10.1436C24.6721 9.7971 24.5862 9.5365 24.4237 9.36174C24.2612 9.18698 24.0083 9.0996 23.6649 9.0996C23.3461 9.0996 23.0839 9.18238 22.8785 9.34794C22.6731 9.5135 22.5581 9.77871 22.5336 10.1436H24.6813Z" fill="#EB5757"/>
<path d="M32.4537 11.1139H28.6642C28.6887 11.5186 28.842 11.8283 29.124 12.0429C29.4092 12.2575 29.8277 12.3648 30.3795 12.3648C30.7291 12.3648 31.0679 12.302 31.3959 12.1763C31.724 12.0506 31.983 11.9157 32.1731 11.7716H32.3571V13.1006C31.983 13.2509 31.6304 13.3597 31.2993 13.4272C30.9682 13.4946 30.6018 13.5283 30.2002 13.5283C29.1639 13.5283 28.3698 13.2953 27.818 12.8293C27.2661 12.3633 26.9902 11.6995 26.9902 10.838C26.9902 9.98566 27.2508 9.31115 27.772 8.81447C28.2962 8.31472 29.0137 8.06485 29.9243 8.06485C30.7643 8.06485 31.3959 8.27793 31.819 8.70409C32.2421 9.12719 32.4537 9.73732 32.4537 10.5345V11.1139ZM30.8072 10.1436C30.798 9.7971 30.7122 9.5365 30.5497 9.36174C30.3872 9.18698 30.1343 9.0996 29.7909 9.0996C29.472 9.0996 29.2099 9.18238 29.0045 9.34794C28.7991 9.5135 28.6841 9.77871 28.6596 10.1436H30.8072Z" fill="#EB5757"/>
</svg>
